<svg width="1440" height="900" viewBox="0 0 1440 900" fill="none" xmlns="http://www.w3.org/2000/svg">
<mask id="mask0_102_103" style="mask-type:alpha" maskUnits="userSpaceOnUse" x="-48" y="-342" width="1584" height="1584">
<rect x="-47.1646" y="-341.165" width="1582.33" height="1582.33" fill="url(#paint0_linear_102_103)"/>
</mask>
<g mask="url(#mask0_102_103)">
<g filter="url(#filter0_ii_102_103)">
<path d="M1463.82 1025.28C1483.01 1043.46 1470.15 1075.76 1443.71 1075.76L1233.94 1075.76C1180 1075.76 1136.87 1030.92 1138.97 977.026L1146.26 789.668C1147.22 764.877 1138.46 740.692 1121.83 722.279L992.089 578.597L1463.82 1025.28Z" fill="url(#paint1_radial_102_103)"/>
<path d="M1463.82 1025.28C1483.01 1043.46 1470.15 1075.76 1443.71 1075.76L1233.94 1075.76C1180 1075.76 1136.87 1030.92 1138.97 977.026L1146.26 789.668C1147.22 764.877 1138.46 740.692 1121.83 722.279L992.089 578.597L1463.82 1025.28Z" fill="#1F2E7E" fill-opacity="0.2"/>
</g>
<g filter="url(#filter1_ii_102_103)">
<path d="M550.6 208.575C569.798 226.754 556.933 259.053 530.493 259.053L320.725 259.053C266.787 259.053 223.66 214.215 225.756 160.318L233.044 -27.0404C234.008 -51.831 225.24 -76.0159 208.614 -94.4293L78.8733 -238.111L550.6 208.575Z" fill="url(#paint2_radial_102_103)"/>
<path d="M550.6 208.575C569.798 226.754 556.933 259.053 530.493 259.053L320.725 259.053C266.787 259.053 223.66 214.215 225.756 160.318L233.044 -27.0404C234.008 -51.831 225.24 -76.0159 208.614 -94.4293L78.8733 -238.111L550.6 208.575Z" fill="#1F2E7E" fill-opacity="0.2"/>
</g>
<g filter="url(#filter2_ii_102_103)">
<path d="M1104.95 733.247C1107.13 735.164 1108.56 737.794 1108.99 740.667V740.667C1114.69 779.326 1067.13 802.24 1040.45 773.685L719.887 430.538L564.212 258.135L1104.95 733.247Z" fill="url(#paint3_radial_102_103)"/>
<path d="M1104.95 733.247C1107.13 735.164 1108.56 737.794 1108.99 740.667V740.667C1114.69 779.326 1067.13 802.24 1040.45 773.685L719.887 430.538L564.212 258.135L1104.95 733.247Z" fill="#1F2E7E" fill-opacity="0.2"/>
</g>
<g filter="url(#filter3_ii_102_103)">
<path d="M903.877 415.441C906.059 417.359 907.49 419.988 907.914 422.862V422.862C913.618 461.521 866.053 484.435 839.377 455.88L518.815 112.733L363.14 -59.6702L903.877 415.441Z" fill="url(#paint4_radial_102_103)"/>
<path d="M903.877 415.441C906.059 417.359 907.49 419.988 907.914 422.862V422.862C913.618 461.521 866.053 484.435 839.377 455.88L518.815 112.733L363.14 -59.6702L903.877 415.441Z" fill="#1F2E7E" fill-opacity="0.2"/>
</g>
<g filter="url(#filter4_ii_102_103)">
<path d="M920.307 474.02C901.109 455.842 913.975 423.543 940.414 423.543L1150.18 423.543C1204.12 423.543 1247.25 468.38 1245.15 522.278L1237.86 709.636C1236.9 734.427 1245.67 758.612 1262.29 777.025L1392.03 920.707L920.307 474.02Z" fill="url(#paint5_radial_102_103)"/>
<path d="M920.307 474.02C901.109 455.842 913.975 423.543 940.414 423.543L1150.18 423.543C1204.12 423.543 1247.25 468.38 1245.15 522.278L1237.86 709.636C1236.9 734.427 1245.67 758.612 1262.29 777.025L1392.03 920.707L920.307 474.02Z" fill="#1F2E7E" fill-opacity="0.2"/>
</g>
<g filter="url(#filter5_ii_102_103)">
<path d="M456.068 -46.0244C436.87 -64.2033 449.736 -96.502 476.175 -96.502L685.943 -96.502C739.882 -96.502 783.009 -51.6647 780.912 2.23318L773.625 189.591C772.66 214.382 781.428 238.567 798.055 256.98L927.795 400.662L456.068 -46.0244Z" fill="url(#paint6_radial_102_103)"/>
<path d="M456.068 -46.0244C436.87 -64.2033 449.736 -96.502 476.175 -96.502L685.943 -96.502C739.882 -96.502 783.009 -51.6647 780.912 2.23318L773.625 189.591C772.66 214.382 781.428 238.567 798.055 256.98L927.795 400.662L456.068 -46.0244Z" fill="#1F2E7E" fill-opacity="0.2"/>
</g>
<g filter="url(#filter6_ii_102_103)">
<path d="M993.491 304.909C967.658 330.742 861.66 266.629 835.827 240.796C809.994 214.963 809.994 173.08 835.827 147.247C861.66 121.414 903.543 121.414 929.376 147.247C955.209 173.08 1019.32 279.076 993.491 304.909Z" fill="url(#paint7_radial_102_103)"/>
<path d="M993.491 304.909C967.658 330.742 861.66 266.629 835.827 240.796C809.994 214.963 809.994 173.08 835.827 147.247C861.66 121.414 903.543 121.414 929.376 147.247C955.209 173.08 1019.32 279.076 993.491 304.909Z" fill="#1F2E7E" fill-opacity="0.2"/>
</g>
<g filter="url(#filter7_ii_102_103)">
<path d="M889.883 769.15C915.716 743.317 1021.71 807.43 1047.55 833.263C1073.38 859.096 1073.38 900.98 1047.55 926.812C1021.71 952.645 979.831 952.645 953.998 926.812C928.165 900.98 864.05 794.983 889.883 769.15Z" fill="url(#paint8_radial_102_103)"/>
<path d="M889.883 769.15C915.716 743.317 1021.71 807.43 1047.55 833.263C1073.38 859.096 1073.38 900.98 1047.55 926.812C1021.71 952.645 979.831 952.645 953.998 926.812C928.165 900.98 864.05 794.983 889.883 769.15Z" fill="#1F2E7E" fill-opacity="0.2"/>
</g>
<g filter="url(#filter8_ii_102_103)">
<circle cx="789.052" cy="677.135" r="45.24" fill="url(#paint9_radial_102_103)"/>
<circle cx="789.052" cy="677.135" r="45.24" fill="#1F2E7E" fill-opacity="0.2"/>
</g>
</g>
<defs>
<filter id="filter0_ii_102_103" x="975.952" y="578.597" width="520.227" height="525.402" filterUnits="userSpaceOnUse" color-interpolation-filters="sRGB">
<feFlood flood-opacity="0" result="BackgroundImageFix"/>
<feBlend mode="normal" in="SourceGraphic" in2="BackgroundImageFix" result="shape"/>
<feColorMatrix in="SourceAlpha" type="matrix" values="0 0 0 0 0 0 0 0 0 0 0 0 0 0 0 0 0 0 127 0" result="hardAlpha"/>
<feOffset dx="-16.136" dy="28.238"/>
<feGaussianBlur stdDeviation="34.289"/>
<feComposite in2="hardAlpha" operator="arithmetic" k2="-1" k3="1"/>
<feColorMatrix type="matrix" values="0 0 0 0 1 0 0 0 0 1 0 0 0 0 1 0 0 0 0.87 0"/>
<feBlend mode="lighten" in2="shape" result="effect1_innerShadow_102_103"/>
<feColorMatrix in="SourceAlpha" type="matrix" values="0 0 0 0 0 0 0 0 0 0 0 0 0 0 0 0 0 0 127 0" result="hardAlpha"/>
<feOffset dx="23.1683" dy="13.5148"/>
<feGaussianBlur stdDeviation="13.5148"/>
<feComposite in2="hardAlpha" operator="arithmetic" k2="-1" k3="1"/>
<feColorMatrix type="matrix" values="0 0 0 0 0.168627 0 0 0 0 0.180392 0 0 0 0 0.239216 0 0 0 0.9 0"/>
<feBlend mode="multiply" in2="effect1_innerShadow_102_103" result="effect2_innerShadow_102_103"/>
</filter>
<filter id="filter1_ii_102_103" x="62.737" y="-238.111" width="520.227" height="525.402" filterUnits="userSpaceOnUse" color-interpolation-filters="sRGB">
<feFlood flood-opacity="0" result="BackgroundImageFix"/>
<feBlend mode="normal" in="SourceGraphic" in2="BackgroundImageFix" result="shape"/>
<feColorMatrix in="SourceAlpha" type="matrix" values="0 0 0 0 0 0 0 0 0 0 0 0 0 0 0 0 0 0 127 0" result="hardAlpha"/>
<feOffset dx="-16.136" dy="28.238"/>
<feGaussianBlur stdDeviation="34.289"/>
<feComposite in2="hardAlpha" operator="arithmetic" k2="-1" k3="1"/>
<feColorMatrix type="matrix" values="0 0 0 0 1 0 0 0 0 1 0 0 0 0 1 0 0 0 0.87 0"/>
<feBlend mode="lighten" in2="shape" result="effect1_innerShadow_102_103"/>
<feColorMatrix in="SourceAlpha" type="matrix" values="0 0 0 0 0 0 0 0 0 0 0 0 0 0 0 0 0 0 127 0" result="hardAlpha"/>
<feOffset dx="23.1683" dy="13.5148"/>
<feGaussianBlur stdDeviation="13.5148"/>
<feComposite in2="hardAlpha" operator="arithmetic" k2="-1" k3="1"/>
<feColorMatrix type="matrix" values="0 0 0 0 0.168627 0 0 0 0 0.180392 0 0 0 0 0.239216 0 0 0 0.9 0"/>
<feBlend mode="multiply" in2="effect1_innerShadow_102_103" result="effect2_innerShadow_102_103"/>
</filter>
<filter id="filter2_ii_102_103" x="548.076" y="258.135" width="584.548" height="556.571" filterUnits="userSpaceOnUse" color-interpolation-filters="sRGB">
<feFlood flood-opacity="0" result="BackgroundImageFix"/>
<feBlend mode="normal" in="SourceGraphic" in2="BackgroundImageFix" result="shape"/>
<feColorMatrix in="SourceAlpha" type="matrix" values="0 0 0 0 0 0 0 0 0 0 0 0 0 0 0 0 0 0 127 0" result="hardAlpha"/>
<feOffset dx="-16.136" dy="28.238"/>
<feGaussianBlur stdDeviation="34.289"/>
<feComposite in2="hardAlpha" operator="arithmetic" k2="-1" k3="1"/>
<feColorMatrix type="matrix" values="0 0 0 0 1 0 0 0 0 1 0 0 0 0 1 0 0 0 0.87 0"/>
<feBlend mode="lighten" in2="shape" result="effect1_innerShadow_102_103"/>
<feColorMatrix in="SourceAlpha" type="matrix" values="0 0 0 0 0 0 0 0 0 0 0 0 0 0 0 0 0 0 127 0" result="hardAlpha"/>
<feOffset dx="23.1683" dy="13.5148"/>
<feGaussianBlur stdDeviation="13.5148"/>
<feComposite in2="hardAlpha" operator="arithmetic" k2="-1" k3="1"/>
<feColorMatrix type="matrix" values="0 0 0 0 0.168627 0 0 0 0 0.180392 0 0 0 0 0.239216 0 0 0 0.9 0"/>
<feBlend mode="multiply" in2="effect1_innerShadow_102_103" result="effect2_innerShadow_102_103"/>
</filter>
<filter id="filter3_ii_102_103" x="347.004" y="-59.6704" width="584.548" height="556.571" filterUnits="userSpaceOnUse" color-interpolation-filters="sRGB">
<feFlood flood-opacity="0" result="BackgroundImageFix"/>
<feBlend mode="normal" in="SourceGraphic" in2="BackgroundImageFix" result="shape"/>
<feColorMatrix in="SourceAlpha" type="matrix" values="0 0 0 0 0 0 0 0 0 0 0 0 0 0 0 0 0 0 127 0" result="hardAlpha"/>
<feOffset dx="-16.136" dy="28.238"/>
<feGaussianBlur stdDeviation="34.289"/>
<feComposite in2="hardAlpha" operator="arithmetic" k2="-1" k3="1"/>
<feColorMatrix type="matrix" values="0 0 0 0 1 0 0 0 0 1 0 0 0 0 1 0 0 0 0.87 0"/>
<feBlend mode="lighten" in2="shape" result="effect1_innerShadow_102_103"/>
<feColorMatrix in="SourceAlpha" type="matrix" values="0 0 0 0 0 0 0 0 0 0 0 0 0 0 0 0 0 0 127 0" result="hardAlpha"/>
<feOffset dx="23.1683" dy="13.5148"/>
<feGaussianBlur stdDeviation="13.5148"/>
<feComposite in2="hardAlpha" operator="arithmetic" k2="-1" k3="1"/>
<feColorMatrix type="matrix" values="0 0 0 0 0.168627 0 0 0 0 0.180392 0 0 0 0 0.239216 0 0 0 0.9 0"/>
<feBlend mode="multiply" in2="effect1_innerShadow_102_103" result="effect2_innerShadow_102_103"/>
</filter>
<filter id="filter4_ii_102_103" x="894.976" y="423.543" width="520.227" height="525.402" filterUnits="userSpaceOnUse" color-interpolation-filters="sRGB">
<feFlood flood-opacity="0" result="BackgroundImageFix"/>
<feBlend mode="normal" in="SourceGraphic" in2="BackgroundImageFix" result="shape"/>
<feColorMatrix in="SourceAlpha" type="matrix" values="0 0 0 0 0 0 0 0 0 0 0 0 0 0 0 0 0 0 127 0" result="hardAlpha"/>
<feOffset dx="-16.136" dy="28.238"/>
<feGaussianBlur stdDeviation="34.289"/>
<feComposite in2="hardAlpha" operator="arithmetic" k2="-1" k3="1"/>
<feColorMatrix type="matrix" values="0 0 0 0 1 0 0 0 0 1 0 0 0 0 1 0 0 0 0.87 0"/>
<feBlend mode="lighten" in2="shape" result="effect1_innerShadow_102_103"/>
<feColorMatrix in="SourceAlpha" type="matrix" values="0 0 0 0 0 0 0 0 0 0 0 0 0 0 0 0 0 0 127 0" result="hardAlpha"/>
<feOffset dx="23.1683" dy="13.5148"/>
<feGaussianBlur stdDeviation="13.5148"/>
<feComposite in2="hardAlpha" operator="arithmetic" k2="-1" k3="1"/>
<feColorMatrix type="matrix" values="0 0 0 0 0.168627 0 0 0 0 0.180392 0 0 0 0 0.239216 0 0 0 0.9 0"/>
<feBlend mode="multiply" in2="effect1_innerShadow_102_103" result="effect2_innerShadow_102_103"/>
</filter>
<filter id="filter5_ii_102_103" x="430.737" y="-96.502" width="520.227" height="525.402" filterUnits="userSpaceOnUse" color-interpolation-filters="sRGB">
<feFlood flood-opacity="0" result="BackgroundImageFix"/>
<feBlend mode="normal" in="SourceGraphic" in2="BackgroundImageFix" result="shape"/>
<feColorMatrix in="SourceAlpha" type="matrix" values="0 0 0 0 0 0 0 0 0 0 0 0 0 0 0 0 0 0 127 0" result="hardAlpha"/>
<feOffset dx="-16.136" dy="28.238"/>
<feGaussianBlur stdDeviation="34.289"/>
<feComposite in2="hardAlpha" operator="arithmetic" k2="-1" k3="1"/>
<feColorMatrix type="matrix" values="0 0 0 0 1 0 0 0 0 1 0 0 0 0 1 0 0 0 0.87 0"/>
<feBlend mode="lighten" in2="shape" result="effect1_innerShadow_102_103"/>
<feColorMatrix in="SourceAlpha" type="matrix" values="0 0 0 0 0 0 0 0 0 0 0 0 0 0 0 0 0 0 127 0" result="hardAlpha"/>
<feOffset dx="23.1683" dy="13.5148"/>
<feGaussianBlur stdDeviation="13.5148"/>
<feComposite in2="hardAlpha" operator="arithmetic" k2="-1" k3="1"/>
<feColorMatrix type="matrix" values="0 0 0 0 0.168627 0 0 0 0 0.180392 0 0 0 0 0.239216 0 0 0 0.9 0"/>
<feBlend mode="multiply" in2="effect1_innerShadow_102_103" result="effect2_innerShadow_102_103"/>
</filter>
<filter id="filter6_ii_102_103" x="800.316" y="127.872" width="222.361" height="211.293" filterUnits="userSpaceOnUse" color-interpolation-filters="sRGB">
<feFlood flood-opacity="0" result="BackgroundImageFix"/>
<feBlend mode="normal" in="SourceGraphic" in2="BackgroundImageFix" result="shape"/>
<feColorMatrix in="SourceAlpha" type="matrix" values="0 0 0 0 0 0 0 0 0 0 0 0 0 0 0 0 0 0 127 0" result="hardAlpha"/>
<feOffset dx="-16.136" dy="28.238"/>
<feGaussianBlur stdDeviation="34.289"/>
<feComposite in2="hardAlpha" operator="arithmetic" k2="-1" k3="1"/>
<feColorMatrix type="matrix" values="0 0 0 0 1 0 0 0 0 1 0 0 0 0 1 0 0 0 0.87 0"/>
<feBlend mode="lighten" in2="shape" result="effect1_innerShadow_102_103"/>
<feColorMatrix in="SourceAlpha" type="matrix" values="0 0 0 0 0 0 0 0 0 0 0 0 0 0 0 0 0 0 127 0" result="hardAlpha"/>
<feOffset dx="23.1683" dy="13.5148"/>
<feGaussianBlur stdDeviation="13.5148"/>
<feComposite in2="hardAlpha" operator="arithmetic" k2="-1" k3="1"/>
<feColorMatrix type="matrix" values="0 0 0 0 0.168627 0 0 0 0 0.180392 0 0 0 0 0.239216 0 0 0 0.9 0"/>
<feBlend mode="multiply" in2="effect1_innerShadow_102_103" result="effect2_innerShadow_102_103"/>
</filter>
<filter id="filter7_ii_102_103" x="867.729" y="763.132" width="222.361" height="211.293" filterUnits="userSpaceOnUse" color-interpolation-filters="sRGB">
<feFlood flood-opacity="0" result="BackgroundImageFix"/>
<feBlend mode="normal" in="SourceGraphic" in2="BackgroundImageFix" result="shape"/>
<feColorMatrix in="SourceAlpha" type="matrix" values="0 0 0 0 0 0 0 0 0 0 0 0 0 0 0 0 0 0 127 0" result="hardAlpha"/>
<feOffset dx="-16.136" dy="28.238"/>
<feGaussianBlur stdDeviation="34.289"/>
<feComposite in2="hardAlpha" operator="arithmetic" k2="-1" k3="1"/>
<feColorMatrix type="matrix" values="0 0 0 0 1 0 0 0 0 1 0 0 0 0 1 0 0 0 0.87 0"/>
<feBlend mode="lighten" in2="shape" result="effect1_innerShadow_102_103"/>
<feColorMatrix in="SourceAlpha" type="matrix" values="0 0 0 0 0 0 0 0 0 0 0 0 0 0 0 0 0 0 127 0" result="hardAlpha"/>
<feOffset dx="23.1683" dy="13.5148"/>
<feGaussianBlur stdDeviation="13.5148"/>
<feComposite in2="hardAlpha" operator="arithmetic" k2="-1" k3="1"/>
<feColorMatrix type="matrix" values="0 0 0 0 0.168627 0 0 0 0 0.180392 0 0 0 0 0.239216 0 0 0 0.9 0"/>
<feBlend mode="multiply" in2="effect1_innerShadow_102_103" result="effect2_innerShadow_102_103"/>
</filter>
<filter id="filter8_ii_102_103" x="732.776" y="631.895" width="117.361" height="109.792" filterUnits="userSpaceOnUse" color-interpolation-filters="sRGB">
<feFlood flood-opacity="0" result="BackgroundImageFix"/>
<feBlend mode="normal" in="SourceGraphic" in2="BackgroundImageFix" result="shape"/>
<feColorMatrix in="SourceAlpha" type="matrix" values="0 0 0 0 0 0 0 0 0 0 0 0 0 0 0 0 0 0 127 0" result="hardAlpha"/>
<feOffset dx="-11.0356" dy="19.3122"/>
<feGaussianBlur stdDeviation="23.4506"/>
<feComposite in2="hardAlpha" operator="arithmetic" k2="-1" k3="1"/>
<feColorMatrix type="matrix" values="0 0 0 0 1 0 0 0 0 1 0 0 0 0 1 0 0 0 0.87 0"/>
<feBlend mode="lighten" in2="shape" result="effect1_innerShadow_102_103"/>
<feColorMatrix in="SourceAlpha" type="matrix" values="0 0 0 0 0 0 0 0 0 0 0 0 0 0 0 0 0 0 127 0" result="hardAlpha"/>
<feOffset dx="15.845" dy="9.24291"/>
<feGaussianBlur stdDeviation="9.24291"/>
<feComposite in2="hardAlpha" operator="arithmetic" k2="-1" k3="1"/>
<feColorMatrix type="matrix" values="0 0 0 0 0.168627 0 0 0 0 0.180392 0 0 0 0 0.239216 0 0 0 0.9 0"/>
<feBlend mode="multiply" in2="effect1_innerShadow_102_103" result="effect2_innerShadow_102_103"/>
</filter>
<linearGradient id="paint0_linear_102_103" x1="1477.25" y1="1241.16" x2="1477.25" y2="-341.165" gradientUnits="userSpaceOnUse">
<stop/>
<stop offset="1" stop-opacity="0"/>
</linearGradient>
<radialGradient id="paint1_radial_102_103" cx="0" cy="0" r="1" gradientUnits="userSpaceOnUse" gradientTransform="translate(2268.75 1157.61) rotate(-120.496) scale(178.832 82.7832)">
<stop stop-color="#949494"/>
<stop offset="0.635171" stop-color="#181818"/>
<stop offset="1" stop-color="#1D1D1D"/>
</radialGradient>
<radialGradient id="paint2_radial_102_103" cx="0" cy="0" r="1" gradientUnits="userSpaceOnUse" gradientTransform="translate(1355.53 340.902) rotate(-120.496) scale(178.832 82.7832)">
<stop stop-color="#949494"/>
<stop offset="0.635171" stop-color="#181818"/>
<stop offset="1" stop-color="#1D1D1D"/>
</radialGradient>
<radialGradient id="paint3_radial_102_103" cx="0" cy="0" r="1" gradientUnits="userSpaceOnUse" gradientTransform="translate(1840.87 837.148) rotate(-120.496) scale(178.832 82.7832)">
<stop stop-color="#949494"/>
<stop offset="0.635171" stop-color="#181818"/>
<stop offset="1" stop-color="#1D1D1D"/>
</radialGradient>
<radialGradient id="paint4_radial_102_103" cx="0" cy="0" r="1" gradientUnits="userSpaceOnUse" gradientTransform="translate(1639.8 519.342) rotate(-120.496) scale(178.832 82.7832)">
<stop stop-color="#949494"/>
<stop offset="0.635171" stop-color="#181818"/>
<stop offset="1" stop-color="#1D1D1D"/>
</radialGradient>
<radialGradient id="paint5_radial_102_103" cx="0" cy="0" r="1" gradientUnits="userSpaceOnUse" gradientTransform="translate(115.373 341.694) rotate(59.5044) scale(178.832 82.7832)">
<stop stop-color="#949494"/>
<stop offset="0.635171" stop-color="#181818"/>
<stop offset="1" stop-color="#1D1D1D"/>
</radialGradient>
<radialGradient id="paint6_radial_102_103" cx="0" cy="0" r="1" gradientUnits="userSpaceOnUse" gradientTransform="translate(-348.866 -178.351) rotate(59.5044) scale(178.832 82.7832)">
<stop stop-color="#949494"/>
<stop offset="0.635171" stop-color="#181818"/>
<stop offset="1" stop-color="#1D1D1D"/>
</radialGradient>
<radialGradient id="paint7_radial_102_103" cx="0" cy="0" r="1" gradientUnits="userSpaceOnUse" gradientTransform="translate(770.398 -132.322) rotate(133.962) scale(34.1409 33.1022)">
<stop stop-color="#949494"/>
<stop offset="0.635171" stop-color="#181818"/>
<stop offset="1" stop-color="#1D1D1D"/>
</radialGradient>
<radialGradient id="paint8_radial_102_103" cx="0" cy="0" r="1" gradientUnits="userSpaceOnUse" gradientTransform="translate(1112.98 1206.38) rotate(-46.0382) scale(34.1409 33.1022)">
<stop stop-color="#949494"/>
<stop offset="0.635171" stop-color="#181818"/>
<stop offset="1" stop-color="#1D1D1D"/>
</radialGradient>
<radialGradient id="paint9_radial_102_103" cx="0" cy="0" r="1" gradientUnits="userSpaceOnUse" gradientTransform="translate(576.972 573.579) rotate(88.9618) scale(23.3493 22.6389)">
<stop stop-color="#949494"/>
<stop offset="0.635171" stop-color="#181818"/>
<stop offset="1" stop-color="#1D1D1D"/>
</radialGradient>
</defs>
</svg>
