<svg width="1440" height="900" viewBox="0 0 1440 900" fill="none" xmlns="http://www.w3.org/2000/svg">
<rect width="1440" height="900" fill="#141414"/>
<g clip-path="url(#clip0_1040_1682)">
<mask id="mask0_1040_1682" style="mask-type:alpha" maskUnits="userSpaceOnUse" x="-327" y="185" width="1793" height="825">
<path d="M-109.203 1009.8H-326.122V842.094H-163.889L-14.4156 732.723H541.551L709.253 185.871H1465.43V353.572H833.206L665.504 900.425H40.2697L-109.203 1009.8Z" fill="url(#paint0_linear_1040_1682)"/>
</mask>
<g mask="url(#mask0_1040_1682)">
<g filter="url(#filter0_ii_1040_1682)">
<path d="M-109.203 1009.8H-326.122V842.094H-163.889L-26.8916 741.852C-18.7852 735.92 -9.00122 732.723 1.04349 732.723H506.577C527.362 732.723 545.711 719.157 551.805 699.286L698.999 219.307C705.092 199.437 723.442 185.871 744.226 185.871H1465.43V353.572H868.18C847.395 353.572 829.046 367.138 822.952 387.009L675.758 866.988C669.665 886.859 651.315 900.425 630.531 900.425H55.7288C45.6841 900.425 35.9001 903.622 27.7937 909.553L-109.203 1009.8Z" fill="url(#paint1_radial_1040_1682)"/>
<path d="M-109.203 1009.8H-326.122V842.094H-163.889L-26.8916 741.852C-18.7852 735.92 -9.00122 732.723 1.04349 732.723H506.577C527.362 732.723 545.711 719.157 551.805 699.286L698.999 219.307C705.092 199.437 723.442 185.871 744.226 185.871H1465.43V353.572H868.18C847.395 353.572 829.046 367.138 822.952 387.009L675.758 866.988C669.665 886.859 651.315 900.425 630.531 900.425H55.7288C45.6841 900.425 35.9001 903.622 27.7937 909.553L-109.203 1009.8Z" fill="#1F2E7E" fill-opacity="0.2"/>
</g>
</g>
<mask id="mask1_1040_1682" style="mask-type:alpha" maskUnits="userSpaceOnUse" x="-333" y="-185" width="1791" height="825">
<path d="M933.732 -184.698L1457.54 -184.698L1457.54 -16.997L988.417 -16.997L838.944 92.3735L613.138 92.3735L445.437 639.226L-332.227 639.226L-332.227 471.524L321.484 471.524L489.185 -75.328L784.259 -75.3279L933.732 -184.698Z" fill="url(#paint2_linear_1040_1682)"/>
</mask>
<g mask="url(#mask1_1040_1682)">
<g filter="url(#filter1_ii_1040_1682)">
<path d="M933.732 -184.698L1457.54 -184.698L1457.54 -16.997L988.417 -16.997L851.42 83.2448C843.313 89.1763 833.529 92.3735 823.485 92.3735L648.112 92.3735C627.328 92.3735 608.978 105.939 602.884 125.81L455.691 605.789C449.598 625.66 431.248 639.226 410.464 639.226L-332.227 639.226L-332.227 471.524L286.51 471.524C307.295 471.524 325.644 457.958 331.738 438.087L478.931 -41.8911C485.025 -61.762 503.375 -75.328 524.159 -75.328L768.8 -75.3279C778.844 -75.3279 788.628 -78.5252 796.735 -84.4567L933.732 -184.698Z" fill="url(#paint3_radial_1040_1682)"/>
<path d="M933.732 -184.698L1457.54 -184.698L1457.54 -16.997L988.417 -16.997L851.42 83.2448C843.313 89.1763 833.529 92.3735 823.485 92.3735L648.112 92.3735C627.328 92.3735 608.978 105.939 602.884 125.81L455.691 605.789C449.598 625.66 431.248 639.226 410.464 639.226L-332.227 639.226L-332.227 471.524L286.51 471.524C307.295 471.524 325.644 457.958 331.738 438.087L478.931 -41.8911C485.025 -61.762 503.375 -75.328 524.159 -75.328L768.8 -75.3279C778.844 -75.3279 788.628 -78.5252 796.735 -84.4567L933.732 -184.698Z" fill="#1F2E7E" fill-opacity="0.2"/>
</g>
</g>
<mask id="mask2_1040_1682" style="mask-type:alpha" maskUnits="userSpaceOnUse" x="436" y="457" width="1033" height="716">
<path d="M732.556 1004.74H436.506L436.506 1172.44H856.51L1024.21 625.586H1468.99V457.884L900.258 457.884L732.556 1004.74Z" fill="url(#paint4_linear_1040_1682)"/>
</mask>
<g mask="url(#mask2_1040_1682)">
<g filter="url(#filter2_ii_1040_1682)">
<path d="M697.582 1004.74H436.506L436.506 1172.44H821.536C842.32 1172.44 860.67 1158.87 866.764 1139L1013.96 659.023C1020.05 639.152 1038.4 625.586 1059.19 625.586H1468.99V457.884L935.232 457.884C914.447 457.884 896.098 471.45 890.004 491.321L742.81 971.3C736.716 991.171 718.367 1004.74 697.582 1004.74Z" fill="url(#paint5_radial_1040_1682)"/>
<path d="M697.582 1004.74H436.506L436.506 1172.44H821.536C842.32 1172.44 860.67 1158.87 866.764 1139L1013.96 659.023C1020.05 639.152 1038.4 625.586 1059.19 625.586H1468.99V457.884L935.232 457.884C914.447 457.884 896.098 471.45 890.004 491.321L742.81 971.3C736.716 991.171 718.367 1004.74 697.582 1004.74Z" fill="#1F2E7E" fill-opacity="0.2"/>
</g>
</g>
</g>
<defs>
<filter id="filter0_ii_1040_1682" x="-362.295" y="185.871" width="1879.66" height="887.227" filterUnits="userSpaceOnUse" color-interpolation-filters="sRGB">
<feFlood flood-opacity="0" result="BackgroundImageFix"/>
<feBlend mode="normal" in="SourceGraphic" in2="BackgroundImageFix" result="shape"/>
<feColorMatrix in="SourceAlpha" type="matrix" values="0 0 0 0 0 0 0 0 0 0 0 0 0 0 0 0 0 0 127 0" result="hardAlpha"/>
<feOffset dx="-36.173" dy="63.3028"/>
<feGaussianBlur stdDeviation="76.8677"/>
<feComposite in2="hardAlpha" operator="arithmetic" k2="-1" k3="1"/>
<feColorMatrix type="matrix" values="0 0 0 0 1 0 0 0 0 1 0 0 0 0 1 0 0 0 0.87 0"/>
<feBlend mode="lighten" in2="shape" result="effect1_innerShadow_1040_1682"/>
<feColorMatrix in="SourceAlpha" type="matrix" values="0 0 0 0 0 0 0 0 0 0 0 0 0 0 0 0 0 0 127 0" result="hardAlpha"/>
<feOffset dx="51.9376" dy="30.297"/>
<feGaussianBlur stdDeviation="30.297"/>
<feComposite in2="hardAlpha" operator="arithmetic" k2="-1" k3="1"/>
<feColorMatrix type="matrix" values="0 0 0 0 0.168627 0 0 0 0 0.180392 0 0 0 0 0.239216 0 0 0 0.9 0"/>
<feBlend mode="multiply" in2="effect1_innerShadow_1040_1682" result="effect2_innerShadow_1040_1682"/>
</filter>
<filter id="filter1_ii_1040_1682" x="-368.4" y="-184.698" width="1877.88" height="887.227" filterUnits="userSpaceOnUse" color-interpolation-filters="sRGB">
<feFlood flood-opacity="0" result="BackgroundImageFix"/>
<feBlend mode="normal" in="SourceGraphic" in2="BackgroundImageFix" result="shape"/>
<feColorMatrix in="SourceAlpha" type="matrix" values="0 0 0 0 0 0 0 0 0 0 0 0 0 0 0 0 0 0 127 0" result="hardAlpha"/>
<feOffset dx="-36.173" dy="63.3028"/>
<feGaussianBlur stdDeviation="76.8677"/>
<feComposite in2="hardAlpha" operator="arithmetic" k2="-1" k3="1"/>
<feColorMatrix type="matrix" values="0 0 0 0 1 0 0 0 0 1 0 0 0 0 1 0 0 0 0.87 0"/>
<feBlend mode="lighten" in2="shape" result="effect1_innerShadow_1040_1682"/>
<feColorMatrix in="SourceAlpha" type="matrix" values="0 0 0 0 0 0 0 0 0 0 0 0 0 0 0 0 0 0 127 0" result="hardAlpha"/>
<feOffset dx="51.9376" dy="30.297"/>
<feGaussianBlur stdDeviation="30.297"/>
<feComposite in2="hardAlpha" operator="arithmetic" k2="-1" k3="1"/>
<feColorMatrix type="matrix" values="0 0 0 0 0.168627 0 0 0 0 0.180392 0 0 0 0 0.239216 0 0 0 0.9 0"/>
<feBlend mode="multiply" in2="effect1_innerShadow_1040_1682" result="effect2_innerShadow_1040_1682"/>
</filter>
<filter id="filter2_ii_1040_1682" x="400.333" y="457.884" width="1120.59" height="777.857" filterUnits="userSpaceOnUse" color-interpolation-filters="sRGB">
<feFlood flood-opacity="0" result="BackgroundImageFix"/>
<feBlend mode="normal" in="SourceGraphic" in2="BackgroundImageFix" result="shape"/>
<feColorMatrix in="SourceAlpha" type="matrix" values="0 0 0 0 0 0 0 0 0 0 0 0 0 0 0 0 0 0 127 0" result="hardAlpha"/>
<feOffset dx="-36.173" dy="63.3028"/>
<feGaussianBlur stdDeviation="76.8677"/>
<feComposite in2="hardAlpha" operator="arithmetic" k2="-1" k3="1"/>
<feColorMatrix type="matrix" values="0 0 0 0 1 0 0 0 0 1 0 0 0 0 1 0 0 0 0.87 0"/>
<feBlend mode="lighten" in2="shape" result="effect1_innerShadow_1040_1682"/>
<feColorMatrix in="SourceAlpha" type="matrix" values="0 0 0 0 0 0 0 0 0 0 0 0 0 0 0 0 0 0 127 0" result="hardAlpha"/>
<feOffset dx="51.9376" dy="30.297"/>
<feGaussianBlur stdDeviation="30.297"/>
<feComposite in2="hardAlpha" operator="arithmetic" k2="-1" k3="1"/>
<feColorMatrix type="matrix" values="0 0 0 0 0.168627 0 0 0 0 0.180392 0 0 0 0 0.239216 0 0 0 0.9 0"/>
<feBlend mode="multiply" in2="effect1_innerShadow_1040_1682" result="effect2_innerShadow_1040_1682"/>
</filter>
<linearGradient id="paint0_linear_1040_1682" x1="-68.098" y1="510.842" x2="854.716" y2="655.69" gradientUnits="userSpaceOnUse">
<stop offset="0.119214" stop-opacity="0"/>
<stop offset="1"/>
</linearGradient>
<radialGradient id="paint1_radial_1040_1682" cx="0" cy="0" r="1" gradientUnits="userSpaceOnUse" gradientTransform="translate(217.473 118.625) rotate(84.5848) scale(294.773 1482.19)">
<stop stop-color="#949494"/>
<stop offset="0.635171" stop-color="#181818"/>
<stop offset="1" stop-color="#1D1D1D"/>
</radialGradient>
<linearGradient id="paint2_linear_1040_1682" x1="1351.1" y1="314.254" x2="281.465" y2="146.527" gradientUnits="userSpaceOnUse">
<stop offset="0.119214" stop-opacity="0"/>
<stop offset="1"/>
</linearGradient>
<radialGradient id="paint3_radial_1040_1682" cx="0" cy="0" r="1" gradientUnits="userSpaceOnUse" gradientTransform="translate(1160.14 706.471) rotate(-95.4152) scale(294.773 1482.19)">
<stop stop-color="#949494"/>
<stop offset="0.635171" stop-color="#181818"/>
<stop offset="1" stop-color="#1D1D1D"/>
</radialGradient>
<linearGradient id="paint4_linear_1040_1682" x1="913.515" y1="1289.69" x2="1221.01" y2="536.729" gradientUnits="userSpaceOnUse">
<stop offset="0.119214" stop-opacity="0"/>
<stop offset="0.546875" stop-opacity="0.485545"/>
<stop offset="1"/>
</linearGradient>
<radialGradient id="paint5_radial_1040_1682" cx="0" cy="0" r="1" gradientUnits="userSpaceOnUse" gradientTransform="translate(549.063 399.565) rotate(84.5837) scale(255.644 1285.71)">
<stop stop-color="#949494"/>
<stop offset="0.635171" stop-color="#181818"/>
<stop offset="1" stop-color="#1D1D1D"/>
</radialGradient>
<clipPath id="clip0_1040_1682">
<rect width="1774" height="1774" fill="white" transform="translate(-143 -437)"/>
</clipPath>
</defs>
</svg>
